<?xml version="1.0" standalone="yes"?>
<svg xmlns="http://www.w3.org/2000/svg" width="200" height="200">
<!-- <path style="fill:#fdfefe; stroke:none;" d="M0 0L0 102L15 101C17.3922 118.75 32.7008 127.532 50 125.829C60.372 124.808 73.7656 119.64 72.8796 107C72.1527 96.6284 61.4201 93.1127 53 90.7099C33.3992 85.1165 -2.99845 79.2649 4.92747 50C15.304 11.6866 84.1717 20.0826 85 60L70 61C67.8051 44.7797 56.0758 39.6453 41 40.0147C30.0163 40.2838 17.5412 45.9017 20.2785 58.9961C22.2261 68.3123 35.3704 69.966 43 71.8735C63.8825 77.0941 94.7266 85.4533 87.4853 114C77.4655 153.501 9.69242 146.595 1 110L0 110L0 147L200 147L200 123C188.066 130.364 177.164 137.349 163 139.561C152.982 141.126 142.547 139.858 133 136.644C95.8943 124.154 86.9961 74.4294 109.681 45C125.97 23.8673 163.912 18.1197 184.91 35.8194C192.542 42.2522 195.129 50.2671 199 59C195.597 60.0883 188.866 63.5204 185.418 61.7878C180.399 59.2661 179.075 49.3925 173.985 45.6373C165.677 39.5086 153.922 38.8698 144 40.3002C111.981 44.916 102.723 96.6465 126.09 116.482C138.652 127.146 173.462 131.756 183.821 114.671C186.654 109.999 185 101.296 185 96L153 96L152 81L200 81L200 0L0 0z"/> -->
<!-- <path style="fill:#afafae; stroke:none;" d="M32 26L32 27L35 27L32 26z"/> -->
<path style="fill:#3c7bbc; stroke:none;" d="M35 26L36 27L35 26z"/>
<path style="fill:#545453; stroke:none;" d="M15 101L0 102C0.801511 112.142 4.05581 122.659 12.0903 129.482C32.6885 146.975 78.3763 144.219 86.9568 115C95.7154 85.1743 63.3969 77.2488 42 71.8735C33.7029 69.7891 20.9723 67.2598 19.3843 57C17.7648 46.5369 29.6133 41.0659 38 39.8704C53.0722 37.7218 67.5901 43.6942 70 60L85 59C83.8406 50.0222 81.1189 41.3902 73.9846 35.3287C55.2858 19.4419 12.8234 22.1647 5.48997 49C-2.69928 78.9669 31.3926 84.3745 52 90.2909C60.1485 92.6303 71.8901 95.8442 72.8873 106C74.0063 117.396 62.9515 124.265 53 125.7C36.1602 128.127 15.8799 120.209 15 101z"/>
<path style="fill:#3c7bbc; stroke:none;" d="M51 26L52 27L51 26z"/>
<!-- <path style="fill:#afafae; stroke:none;" d="M52 26L52 27L55 27L52 26M141 26L141 27L144 27L141 26z"/> -->
<path style="fill:#3c7bbc; stroke:none;" d="M200 82L153 82L153 95L185 95C185 100.485 186.6 109.002 183.972 113.957C180.444 120.608 168.841 123.832 162 125.192C134.267 130.704 112.527 109.393 113.259 82C114.012 53.854 139.362 29.0407 168 42.3241C177.361 46.666 177.644 55.9939 184.699 60.9576C188.039 63.3071 197.687 60.6866 197.323 55.9421C195.102 26.9912 154.268 21.8062 133 28.7492C106.171 37.5076 96.2594 64.8876 98.0895 91C100.837 130.202 142.597 148.883 177 135.935C183.85 133.357 193.803 129.5 198.397 123.535C200.936 120.238 200 114.904 200 111L200 82z"/>
<!-- <path style="fill:#afafae; stroke:none;" d="M161 26L161 27L164 27L161 26M28.6667 27.3333L29.3333 27.6667L28.6667 27.3333M57.6667 27.3333L58.3333 27.6667L57.6667 27.3333M136.667 27.3333L137.333 27.6667L136.667 27.3333M167.667 27.3333L168.333 27.6667L167.667 27.3333M25 28L26 29L25 28z"/> -->
<path style="fill:#3c7bbc; stroke:none;" d="M26 28L27 29L26 28z"/>
<!-- <path style="fill:#afafae; stroke:none;" d="M61 28L62 29L61 28M133 28L134 29L133 28M171 28L172 29L171 28M23 29L24 30L23 29M64 29L65 30L64 29M130 29L131 30L130 29M174 29L175 30L174 29M20 30L21 31L20 30M66 30L67 31L66 30M128 30L129 31L128 30M176 30L177 31L176 30M18 31L19 32L18 31M68 31L69 32L68 31M125.667 31.3333L126.333 31.6667L125.667 31.3333M178 31L179 32L178 31M17 32L18 33L17 32M70 32L71 33L70 32M123 32L124 33L123 32M180 32L181 33L180 32M15 33L16 34L15 33z"/> -->
<path style="fill:#3c7bbc; stroke:none;" d="M71 33L72 34L71 33z"/>
<!-- <path style="fill:#afafae; stroke:none;" d="M122 33L123 34L122 33M182 33L183 34L182 33M14 34L15 35L14 34M73 34L74 35L73 34M120 34L121 35L120 34M183 34L184 35L183 34M13 35L14 36L13 35M74 35L75 36L74 35M12 36L13 37L12 36M75 36L76 37L75 36M117 36L118 37L117 36M11 37L12 38L11 37M76 37L77 38L76 37M116 37L117 38L116 37M187 37L188 38L187 37M10 38L11 39L10 38M77 38L78 39L77 38M115 38L116 39L115 38z"/> -->
<path style="fill:#3c7bbc; stroke:none;" d="M40.6667 39.3333L41.3333 39.6667L40.6667 39.3333z"/>
<!-- <path style="fill:#afafae; stroke:none;" d="M42 39L42 40L46 40L42 39z"/> -->
<path style="fill:#3c7bbc; stroke:none;" d="M46 39L47 40L46 39z"/>
<!-- <path style="fill:#afafae; stroke:none;" d="M114 39L115 40L114 39M146 39L146 40L159 40L146 39M33 40L33 41L36 41L33 40M51 40L51 41L54 41L51 40M113 40L114 41L113 40M141.667 40.3333L142.333 40.6667L141.667 40.3333M162.667 40.3333L163.333 40.6667L162.667 40.3333M8 41L9 42L8 41M30 41L31 42L30 41M56 41L57 42L56 41M79 41L80 42L79 41M112 41L113 42L112 41M137.667 41.3333L138.333 41.6667L137.667 41.3333M166 41L167 42L166 41M190 41L191 42L190 41M28 42L29 43L28 42M58 42L59 43L58 42z"/> -->
<path style="fill:#3c7bbc; stroke:none;" d="M59 42L60 43L59 42z"/>
<!-- <path style="fill:#afafae; stroke:none;" d="M80 42L81 43L80 42M111 42L112 43L111 42M135 42L136 43L135 42M168 42L169 43L168 42M191 42L192 43L191 42M7 43L8 44L7 43M26 43L27 44L26 43M60 43L61 44L60 43z"/> -->
<path style="fill:#3c7bbc; stroke:none;" d="M80 43L81 44L80 43z"/>
<!-- <path style="fill:#afafae; stroke:none;" d="M110 43L111 44L110 43M133 43L134 44L133 43M170 43L171 44L170 43z"/> -->
<path style="fill:#3c7bbc; stroke:none;" d="M62 44L63 45L62 44z"/>
<!-- <path style="fill:#afafae; stroke:none;" d="M81 44L82 45L81 44M131 44L132 45L131 44M172 44L173 45L172 44M192 44L193 45L192 44M6 45L7 46L6 45M23 45L24 46L23 45M63 45L64 46L63 45M193 45L194 46L193 45z"/> -->
<path style="fill:#3c7bbc; stroke:none;" d="M22 46L23 47L22 46z"/>
<!-- <path style="fill:#afafae; stroke:none;" d="M64 46L65 47L64 46M82.3333 46.6667L82.6667 47.3333L82.3333 46.6667M108 46L109 47L108 46M128 46L129 47L128 46M175 46L176 47L175 46M5.33333 47.6667L5.66667 48.3333L5.33333 47.6667z"/> -->
<path style="fill:#3c7bbc; stroke:none;" d="M65 47L66 48L65 47z"/>
<!-- <path style="fill:#afafae; stroke:none;" d="M107 47L108 48L107 47M127 47L128 48L127 47M176 47L177 48L176 47M194 47L195 48L194 47M21 48L22 49L21 48M177 48L178 49L177 48M20 49L21 50L20 49M66 49L67 50L66 49M83 49L84 50L83 49M106 49L107 50L106 49M195.333 49.6667L195.667 50.3333L195.333 49.6667z"/> -->
<path style="fill:#3c7bbc; stroke:none;" d="M67 50L68 51L67 50M83 50L84 51L83 50z"/>
<!-- <path style="fill:#afafae; stroke:none;" d="M4 51L4 54L5 54L4 51M67 51L68 52L67 51M105 51L106 52L105 51M123 51L124 52L123 51M179 51L180 52L179 51M19 52L19 59L20 59L19 52M122 52L123 53L122 52M196 52L197 53L196 52M68 53L69 54L68 53M84.3333 53.6667L84.6667 54.3333L84.3333 53.6667M104 53L105 54L104 53M180 53L181 54L180 53z"/> -->
<path style="fill:#3c7bbc; stroke:none;" d="M84 55L85 56L84 55z"/>
<!-- <path style="fill:#afafae; stroke:none;" d="M103 55L104 56L103 55M120 55L121 56L120 55M181 55L182 56L181 55M197 55L198 56L197 55M69.3333 56.6667L69.6667 57.3333L69.3333 56.6667M102 57L103 58L102 57M119 57L120 58L119 57M182 57L183 58L182 57M198 58L199 59L198 58M4 59L4 62L5 62L4 59z"/> -->
<path style="fill:#3c7bbc; stroke:none;" d="M82 59L83 60L82 59z"/>
<!-- <path style="fill:#afafae; stroke:none;" d="M83.6667 59.3333L84.3333 59.6667L83.6667 59.3333M118 59L119 60L118 59M197 59L198 60L197 59M70 60L70 61L76 61L70 60M101 60L102 61L101 60M183 60L184 61L183 60M193.667 60.3333L194.333 60.6667L193.667 60.3333M20 61L21 62L20 61M117 61L118 62L117 61M189.667 61.3333L190.333 61.6667L189.667 61.3333M21 62L22 63L21 62M100.333 62.6667L100.667 63.3333L100.333 62.6667M184 62L184 63L188 63L184 62M116.333 63.6667L116.667 64.3333L116.333 63.6667M5.33333 64.6667L5.66667 65.3333L5.33333 64.6667M24 65L25 66L24 65M25 66L26 67L25 66M99.3333 66.6667L99.6667 67.3333L99.3333 66.6667M6 67L7 68L6 67z"/> -->
<path style="fill:#3c7bbc; stroke:none;" d="M27 67L28 68L27 67z"/>
<!-- <path style="fill:#afafae; stroke:none;" d="M28 67L29 68L28 67M115 67L116 68L115 67M30 68L31 69L30 68M7 69L8 70L7 69M33 69L34 70L33 69M36.6667 70.3333L37.3333 70.6667L36.6667 70.3333M98 70L98 73L99 73L98 70M40.6667 71.3333L41.3333 71.6667L40.6667 71.3333M114 71L114 74L115 74L114 71M9 72L10 73L9 72M44.6667 72.3333L45.3333 72.6667L44.6667 72.3333M10 73L11 74L10 73M48.6667 73.3333L49.3333 73.6667L48.6667 73.3333M11 74L12 75L11 74z"/> -->
<path style="fill:#3c7bbc; stroke:none;" d="M52 74L53 75L52 74z"/>
<!-- <path style="fill:#afafae; stroke:none;" d="M53 74L54 75L53 74M12 75L13 76L12 75M56.6667 75.3333L57.3333 75.6667L56.6667 75.3333M13 76L14 77L13 76M60.6667 76.3333L61.3333 76.6667L60.6667 76.3333M14 77L15 78L14 77M63.6667 77.3333L64.3333 77.6667L63.6667 77.3333M66.6667 78.3333L67.3333 78.6667L66.6667 78.3333M97 78L97 89L98 89L97 78M17 79L18 80L17 79M69 79L70 80L69 79M113 79L113 86L114 86L113 79M19 80L20 81L19 80M71 80L72 81L71 80M21 81L22 82L21 81M73 81L74 82L73 81M152 81L152 95L153 95L153 82L200 82C187.586 76.7907 165.526 81 152 81M23 82L24 83L23 82M74 82L75 83L74 82M26 83L27 84L26 83M76 83L77 84L76 83M29 84L30 85L29 84M77 84L78 85L77 84M32.6667 85.3333L33.3333 85.6667L32.6667 85.3333M36 86L37 87L36 86M40 87L41 88L40 87z"/> -->
<path style="fill:#3c7bbc; stroke:none;" d="M41 87L42 88L41 87z"/>
<path style="fill:#afafae; stroke:none;" d="M44 88L45 89L44 88z"/>
<path style="fill:#3c7bbc; stroke:none;" d="M45 88L46 89L45 88z"/>
<path style="fill:#afafae; stroke:none;" d="M48 89L49 90L48 89z"/>
<path style="fill:#3c7bbc; stroke:none;" d="M49 89L50 90L49 89z"/>
<path style="fill:#afafae; stroke:none;" d="M82 89L83 90L82 89M52 90L53 91L52 90M83 90L84 91L83 90M55.6667 91.3333L56.3333 91.6667L55.6667 91.3333M59 92L60 93L59 92M84 92L85 93L84 92M61.6667 93.3333L62.3333 93.6667L61.6667 93.3333M85.3333 93.6667L85.6667 94.3333L85.3333 93.6667M114.333 93.6667L114.667 94.3333L114.333 93.6667M64 94L65 95L64 94M98.3333 94.6667L98.6667 95.3333L98.3333 94.6667M65 95L66 96L65 95M153 95L154 96L153 95M155 95L155 96L185 96L155 95M67 96L68 97L67 96M86 96L87 97L86 96M68 97L69 98L68 97M69 98L70 99L69 98M115 98L116 99L115 98M70 99L71 100L70 99M87 99L88 100L87 99M99.3333 99.6667L99.6667 100.333L99.3333 99.6667z"/>
<path style="fill:#3c7bbc; stroke:none;" d="M71 100L72 101L71 100M87 100L88 101L87 100z"/>
<path style="fill:#afafae; stroke:none;" d="M3 101L3 102L8 102L3 101z"/>
<path style="fill:#3c7bbc; stroke:none;" d="M8 101L9 102L8 101z"/>
<path style="fill:#afafae; stroke:none;" d="M71 101L72 102L71 101M116.333 101.667L116.667 102.333L116.333 101.667z"/>
<path style="fill:#3c7bbc; stroke:none;" d="M72 102L73 103L72 102z"/>
<path style="fill:#afafae; stroke:none;" d="M72 103L73 104L72 103M100 103L101 104L100 103M15.3333 104.667L15.6667 105.333L15.3333 104.667M88 104L88 109L89 109L88 104M117 104L118 105L117 104z"/>
<path style="fill:#3c7bbc; stroke:none;" d="M0 106L1 107L0 106M15 106L16 107L15 106z"/>
<path style="fill:#afafae; stroke:none;" d="M101 106L102 107L101 106M118 106L119 107L118 106M0 107L0 110L1 110L0 107M16.3333 108.667L16.6667 109.333L16.3333 108.667M102 108L103 109L102 108M119 108L120 109L119 108M17 111L18 112L17 111M103 111L104 112L103 111M121 111L122 112L121 111M1 112L2 113L1 112M72 112L73 113L72 112M122 112L123 113L122 112M18 113L19 114L18 113M87.3333 113.667L87.6667 114.333L87.3333 113.667M104 113L105 114L104 113M19 114L20 115L19 114M71 114L72 115L71 114M184 114L185 115L184 114M2 115L3 116L2 115M70 116L71 117L70 116M86.3333 116.667L86.6667 117.333L86.3333 116.667M106 116L107 117L106 116M182 116L183 117L182 116M3 117L4 118L3 117z"/>
<path style="fill:#3c7bbc; stroke:none;" d="M21 117L22 118L21 117z"/>
<path style="fill:#afafae; stroke:none;" d="M69 117L70 118L69 117M127 117L128 118L127 117M181 117L182 118L181 117M107 118L108 119L107 118M128 118L129 119L128 118M179 118L180 119L179 118M4 119L5 120L4 119M85 119L86 120L85 119M108 119L109 120L108 119M130 119L131 120L130 119M177 119L178 120L177 119M25 120L26 121L25 120M66 120L67 121L66 120M131 120L132 121L131 120M175 120L176 121L175 120M5 121L6 122L5 121M27 121L28 122L27 121M65 121L66 122L65 121M84 121L85 122L84 121M133 121L134 122L133 121M173 121L174 122L173 121M29 122L30 123L29 122M63 122L64 123L63 122M135.667 122.333L136.333 122.667L135.667 122.333M170.667 122.333L171.333 122.667L170.667 122.333M6 123L7 124L6 123M31 123L32 124L31 123M60.6667 123.333L61.3333 123.667L60.6667 123.333M83 123L84 124L83 123M111 123L112 124L111 123M138 123L139 124L138 123M168 123L169 124L168 123M7 124L8 125L7 124M34.6667 124.333L35.3333 124.667L34.6667 124.333M57.6667 124.333L58.3333 124.667L57.6667 124.333M82 124L83 125L82 124M112 124L113 125L112 124M141.667 124.333L142.333 124.667L141.667 124.333M164.667 124.333L165.333 124.667L164.667 124.333M197 124L198 125L197 124M8 125L9 126L8 125M38 125L38 126L42 126L38 125M52 125L52 126L55 126L52 125M146 125L146 126L149 126L146 125M157 125L157 126L161 126L157 125M196 125L197 126L196 125M193 127L194 128L193 127M79 128L80 129L79 128M117 128L118 129L117 128M118 129L119 130L118 129M190 129L191 130L190 129M13 130L14 131L13 130M188 130L189 131L188 130M14 131L15 132L14 131z"/>
<path style="fill:#3c7bbc; stroke:none;" d="M75 131L76 132L75 131z"/>
<path style="fill:#afafae; stroke:none;" d="M121 131L122 132L121 131M186 131L187 132L186 131z"/>
<path style="fill:#3c7bbc; stroke:none;" d="M16 132L17 133L16 132z"/>
<path style="fill:#afafae; stroke:none;" d="M74 132L75 133L74 132M123 132L124 133L123 132M17 133L18 134L17 133M72 133L73 134L72 133M125 133L126 134L125 133M182 133L183 134L182 133M19 134L20 135L19 134z"/>
<path style="fill:#3c7bbc; stroke:none;" d="M70 134L71 135L70 134z"/>
<path style="fill:#afafae; stroke:none;" d="M71 134L72 135L71 134M127 134L128 135L127 134M180 134L181 135L180 134M21 135L22 136L21 135z"/>
<path style="fill:#3c7bbc; stroke:none;" d="M68 135L69 136L68 135z"/>
<path style="fill:#afafae; stroke:none;" d="M69 135L70 136L69 135M129 135L130 136L129 135M178 135L179 136L178 135M23.6667 136.333L24.3333 136.667L23.6667 136.333M66 136L67 137L66 136M132 136L133 137L132 136M175 136L176 137L175 136M26.6667 137.333L27.3333 137.667L26.6667 137.333z"/>
<path style="fill:#3c7bbc; stroke:none;" d="M63 137L64 138L63 137z"/>
<path style="fill:#afafae; stroke:none;" d="M64 137L65 138L64 137M135 137L136 138L135 137M172 137L173 138L172 137M30.6667 138.333L31.3333 138.667L30.6667 138.333M60.6667 138.333L61.3333 138.667L60.6667 138.333M139 138L140 139L139 138M168 138L169 139L168 138M35 139L35 140L39 140L35 139z"/>
<path style="fill:#3c7bbc; stroke:none;" d="M39 139L40 140L39 139M53 139L54 140L53 139z"/>
<path style="fill:#afafae; stroke:none;" d="M54 139L54 140L57 140L54 139M143 139L143 140L147 140L143 139M161 139L161 140L164 140L161 139M0 147L1 148L0 147z"/>
<path style="fill:#f38629; stroke:none;" d="M0 173L200 173L200 147L54 147L16 147C12.2687 147 4.69829 145.577 1.6034 148.028C-2.66523 151.409 0 167.857 0 173z"/>
<path style="fill:#afafae; stroke:none;" d="M0 173L0 174L200 174L181 173L141 173L0 173z"/>
<!-- <path style="fill:#fdfefe; stroke:none;" d="M0 174L0 200L200 200L200 174L0 174z"/> -->
</svg>
